<svg xmlns="http://www.w3.org/2000/svg" width="1005" height="600"><rect width="1005" height="600" x="0" y="0" fill="#FFFFFF" id="background"/><g id="series"><g id="solo" transform="translate(0,0)"><g transform="translate(50,50)" clip-path="url(#serieClipPath)"><g id="axis"><g transform="translate(0,500)" fill="none" font-size="10" font-family="sans-serif" text-anchor="middle"><path class="domain" stroke="currentColor" d="M0.5,6V0.5H303V6"/><g class="tick" opacity="1" transform="translate(0.5,0)"><line stroke="currentColor" y2="6"/><text fill="currentColor" y="9" dy="0.71em">4</text></g><g class="tick" opacity="1" transform="translate(34.5,0)"><line stroke="currentColor" y2="6"/><text fill="currentColor" y="9" dy="0.71em">5</text></g><g class="tick" opacity="1" transform="translate(67.5,0)"><line stroke="currentColor" y2="6"/><text fill="currentColor" y="9" dy="0.71em">6</text></g><g class="tick" opacity="1" transform="translate(101.5,0)"><line stroke="currentColor" y2="6"/><text fill="currentColor" y="9" dy="0.71em">7</text></g><g class="tick" opacity="1" transform="translate(134.5,0)"><line stroke="currentColor" y2="6"/><text fill="currentColor" y="9" dy="0.71em">8</text></g><g class="tick" opacity="1" transform="translate(168.5,0)"><line stroke="currentColor" y2="6"/><text fill="currentColor" y="9" dy="0.71em">9</text></g><g class="tick" opacity="1" transform="translate(202.5,0)"><line stroke="currentColor" y2="6"/><text fill="currentColor" y="9" dy="0.71em">10</text></g><g class="tick" opacity="1" transform="translate(235.5,0)"><line stroke="currentColor" y2="6"/><text fill="currentColor" y="9" dy="0.71em">11</text></g><g class="tick" opacity="1" transform="translate(269.5,0)"><line stroke="currentColor" y2="6"/><text fill="currentColor" y="9" dy="0.71em">12</text></g><g class="tick" opacity="1" transform="translate(303.5,0)"><line stroke="currentColor" y2="6"/><text fill="currentColor" y="9" dy="0.71em">13</text></g><text x="302.5" dy="-5" text-anchor="end" style="font-family: Arial, sans-serif; font-size: 12px; fill: rgb(123, 123, 123); font-weight: bold;">km</text></g><g fill="none" font-size="10" font-family="sans-serif" text-anchor="end"><path class="domain" stroke="currentColor" d="M-6,500.5H0.5V0.5H-6"/><g class="tick" opacity="1" transform="translate(0,500.5)"><line stroke="currentColor" x2="-6"/><text fill="currentColor" x="-9" dy="0.32em">October</text></g><g class="tick" opacity="1" transform="translate(0,461.5)"><line stroke="currentColor" x2="-6"/><text fill="currentColor" x="-9" dy="0.32em">2023</text></g><g class="tick" opacity="1" transform="translate(0,423.5)"><line stroke="currentColor" x2="-6"/><text fill="currentColor" x="-9" dy="0.32em">April</text></g><g class="tick" opacity="1" transform="translate(0,385.5)"><line stroke="currentColor" x2="-6"/><text fill="currentColor" x="-9" dy="0.32em">July</text></g><g class="tick" opacity="1" transform="translate(0,346.5)"><line stroke="currentColor" x2="-6"/><text fill="currentColor" x="-9" dy="0.32em">October</text></g><g class="tick" opacity="1" transform="translate(0,308.5)"><line stroke="currentColor" x2="-6"/><text fill="currentColor" x="-9" dy="0.32em">2024</text></g><g class="tick" opacity="1" transform="translate(0,269.5)"><line stroke="currentColor" x2="-6"/><text fill="currentColor" x="-9" dy="0.32em">April</text></g><g class="tick" opacity="1" transform="translate(0,231.5)"><line stroke="currentColor" x2="-6"/><text fill="currentColor" x="-9" dy="0.32em">July</text></g><g class="tick" opacity="1" transform="translate(0,192.5)"><line stroke="currentColor" x2="-6"/><text fill="currentColor" x="-9" dy="0.32em">October</text></g><g class="tick" opacity="1" transform="translate(0,154.5)"><line stroke="currentColor" x2="-6"/><text fill="currentColor" x="-9" dy="0.32em">2025</text></g><g class="tick" opacity="1" transform="translate(0,116.5)"><line stroke="currentColor" x2="-6"/><text fill="currentColor" x="-9" dy="0.32em">April</text></g><g class="tick" opacity="1" transform="translate(0,77.5)"><line stroke="currentColor" x2="-6"/><text fill="currentColor" x="-9" dy="0.32em">July</text></g><g class="tick" opacity="1" transform="translate(0,39.5)"><line stroke="currentColor" x2="-6"/><text fill="currentColor" x="-9" dy="0.32em">October</text></g><g class="tick" opacity="1" transform="translate(0,0.5)"><line stroke="currentColor" x2="-6"/><text fill="currentColor" x="-9" dy="0.32em">2026</text></g><text x="4" text-anchor="start" dominant-baseline="hanging" style="font-family: Arial, sans-serif; font-size: 12px; fill: rgb(123, 123, 123); font-weight: bold;">fecha</text></g></g><g id="viz"><g><circle cx="294" cy="43" fill="#45ac2a" r="8" stroke="none"/></g><g><circle cx="75" cy="441" fill="#b63320" r="7" stroke="none"/></g><g><circle cx="74" cy="406" fill="#45ac2a" r="7" stroke="none"/></g><g><circle cx="107" cy="344" fill="#45ac2a" r="7" stroke="none"/></g><g><circle cx="117" cy="335" fill="#45ac2a" r="7" stroke="none"/></g><g><circle cx="128" cy="303" fill="#45ac2a" r="7" stroke="none"/></g><g><circle cx="148" cy="291" fill="#45ac2a" r="7" stroke="none"/></g><g><circle cx="155" cy="288" fill="#45ac2a" r="7" stroke="none"/></g><g><circle cx="140" cy="276" fill="#45ac2a" r="7" stroke="none"/></g><g><circle cx="161" cy="267" fill="#45ac2a" r="7" stroke="none"/></g><g><circle cx="181" cy="261" fill="#45ac2a" r="7" stroke="none"/></g><g><circle cx="159" cy="255" fill="#45ac2a" r="7" stroke="none"/></g><g><circle cx="174" cy="244" fill="#45ac2a" r="7" stroke="none"/></g><g><circle cx="166" cy="235" fill="#45ac2a" r="7" stroke="none"/></g><g><circle cx="172" cy="226" fill="#45ac2a" r="7" stroke="none"/></g><g><circle cx="172" cy="223" fill="#45ac2a" r="7" stroke="none"/></g><g><circle cx="189" cy="217" fill="#45ac2a" r="7" stroke="none"/></g><g><circle cx="198" cy="191" fill="#45ac2a" r="7" stroke="none"/></g><g><circle cx="205" cy="188" fill="#45ac2a" r="7" stroke="none"/></g><g><circle cx="184" cy="185" fill="#45ac2a" r="7" stroke="none"/></g><g><circle cx="209" cy="179" fill="#45ac2a" r="7" stroke="none"/></g><g><circle cx="204" cy="176" fill="#45ac2a" r="7" stroke="none"/></g><g><circle cx="219" cy="170" fill="#45ac2a" r="7" stroke="none"/></g><g><circle cx="210" cy="167" fill="#45ac2a" r="7" stroke="none"/></g><g><circle cx="215" cy="158" fill="#45ac2a" r="7" stroke="none"/></g><g><circle cx="222" cy="144" fill="#45ac2a" r="7" stroke="none"/></g><g><circle cx="241" cy="141" fill="#45ac2a" r="7" stroke="none"/></g><g><circle cx="242" cy="138" fill="#45ac2a" r="7" stroke="none"/></g><g><circle cx="236" cy="132" fill="#45ac2a" r="7" stroke="none"/></g><g><circle cx="232" cy="126" fill="#45ac2a" r="7" stroke="none"/></g><g><circle cx="240" cy="114" fill="#45ac2a" r="7" stroke="none"/></g><g><circle cx="238" cy="111" fill="#45ac2a" r="7" stroke="none"/></g><g><circle cx="262" cy="102" fill="#45ac2a" r="7" stroke="none"/></g><g><circle cx="256" cy="90" fill="#45ac2a" r="7" stroke="none"/></g><g><circle cx="262" cy="85" fill="#45ac2a" r="7" stroke="none"/></g><g><circle cx="258" cy="73" fill="#45ac2a" r="7" stroke="none"/></g><g><circle cx="254" cy="70" fill="#45ac2a" r="7" stroke="none"/></g><g><circle cx="295" cy="64" fill="#45ac2a" r="7" stroke="none"/></g><g><circle cx="280" cy="58" fill="#45ac2a" r="7" stroke="none"/></g><g><circle cx="283" cy="55" fill="#45ac2a" r="7" stroke="none"/></g><g><circle cx="270" cy="52" fill="#45ac2a" r="7" stroke="none"/></g><g><circle cx="271" cy="49" fill="#45ac2a" r="7" stroke="none"/></g><g><circle cx="285" cy="46" fill="#45ac2a" r="7" stroke="none"/></g><g><circle cx="288" cy="35" fill="#45ac2a" r="7" stroke="none"/></g><g><circle cx="279" cy="29" fill="#45ac2a" r="7" stroke="none"/></g><g><circle cx="20" cy="473" fill="#45ac2a" r="6" stroke="none"/></g><g><circle cx="33" cy="471" fill="#b63320" r="6" stroke="none"/></g><g><circle cx="51" cy="465" fill="#b63320" r="6" stroke="none"/></g><g><circle cx="55" cy="459" fill="#b63320" r="6" stroke="none"/></g><g><circle cx="41" cy="450" fill="#45ac2a" r="6" stroke="none"/></g><g><circle cx="62" cy="447" fill="#45ac2a" r="6" stroke="none"/></g><g><circle cx="72" cy="429" fill="#b63320" r="6" stroke="none"/></g><g><circle cx="67" cy="426" fill="#45ac2a" r="6" stroke="none"/></g><g><circle cx="70" cy="415" fill="#45ac2a" r="6" stroke="none"/></g><g><circle cx="77" cy="391" fill="#45ac2a" r="6" stroke="none"/></g><g><circle cx="76" cy="388" fill="#45ac2a" r="6" stroke="none"/></g><g><circle cx="102" cy="385" fill="#45ac2a" r="6" stroke="none"/></g><g><circle cx="97" cy="379" fill="#b63320" r="6" stroke="none"/></g><g><circle cx="87" cy="376" fill="#45ac2a" r="6" stroke="none"/></g><g><circle cx="78" cy="373" fill="#45ac2a" r="6" stroke="none"/></g><g><circle cx="103" cy="367" fill="#45ac2a" r="6" stroke="none"/></g><g><circle cx="105" cy="356" fill="#45ac2a" r="6" stroke="none"/></g><g><circle cx="97" cy="341" fill="#45ac2a" r="6" stroke="none"/></g><g><circle cx="111" cy="338" fill="#45ac2a" r="6" stroke="none"/></g><g><circle cx="114" cy="323" fill="#45ac2a" r="6" stroke="none"/></g><g><circle cx="130" cy="320" fill="#45ac2a" r="6" stroke="none"/></g><g><circle cx="126" cy="309" fill="#45ac2a" r="6" stroke="none"/></g><g><circle cx="120" cy="300" fill="#45ac2a" r="6" stroke="none"/></g><g><circle cx="130" cy="294" fill="#45ac2a" r="6" stroke="none"/></g><g><circle cx="144" cy="273" fill="#45ac2a" r="6" stroke="none"/></g><g><circle cx="182" cy="229" fill="#45ac2a" r="6" stroke="none"/></g><g><circle cx="178" cy="208" fill="#45ac2a" r="6" stroke="none"/></g><g><circle cx="188" cy="199" fill="#45ac2a" r="6" stroke="none"/></g><g><circle cx="178" cy="197" fill="#45ac2a" r="6" stroke="none"/></g><g><circle cx="27" cy="476" fill="#45ac2a" r="5" stroke="none"/></g><g><circle cx="42" cy="468" fill="#b63320" r="5" stroke="none"/></g><g id="labels"><g transform="translate(294,43)"><text x="0" y="0" text-anchor="middle" dominant-baseline="text-before-edge" transform="translate(0,0)"><tspan x="0" y="0" dy="0"/></text></g><g transform="translate(75,441)"><text x="0" y="0" text-anchor="middle" dominant-baseline="text-before-edge" transform="translate(0,0)"><tspan x="0" y="0" dy="0"/></text></g><g transform="translate(74,406)"><text x="0" y="0" text-anchor="middle" dominant-baseline="text-before-edge" transform="translate(0,0)"><tspan x="0" y="0" dy="0"/></text></g><g transform="translate(107,344)"><text x="0" y="0" text-anchor="middle" dominant-baseline="text-before-edge" transform="translate(0,0)"><tspan x="0" y="0" dy="0"/></text></g><g transform="translate(117,335)"><text x="0" y="0" text-anchor="middle" dominant-baseline="text-before-edge" transform="translate(0,0)"><tspan x="0" y="0" dy="0"/></text></g><g transform="translate(128,303)"><text x="0" y="0" text-anchor="middle" dominant-baseline="text-before-edge" transform="translate(0,0)"><tspan x="0" y="0" dy="0"/></text></g><g transform="translate(148,291)"><text x="0" y="0" text-anchor="middle" dominant-baseline="text-before-edge" transform="translate(0,0)"><tspan x="0" y="0" dy="0"/></text></g><g transform="translate(155,288)"><text x="0" y="0" text-anchor="middle" dominant-baseline="text-before-edge" transform="translate(0,0)"><tspan x="0" y="0" dy="0"/></text></g><g transform="translate(140,276)"><text x="0" y="0" text-anchor="middle" dominant-baseline="text-before-edge" transform="translate(0,0)"><tspan x="0" y="0" dy="0"/></text></g><g transform="translate(161,267)"><text x="0" y="0" text-anchor="middle" dominant-baseline="text-before-edge" transform="translate(0,0)"><tspan x="0" y="0" dy="0"/></text></g><g transform="translate(181,261)"><text x="0" y="0" text-anchor="middle" dominant-baseline="text-before-edge" transform="translate(0,0)"><tspan x="0" y="0" dy="0"/></text></g><g transform="translate(159,255)"><text x="0" y="0" text-anchor="middle" dominant-baseline="text-before-edge" transform="translate(0,0)"><tspan x="0" y="0" dy="0"/></text></g><g transform="translate(174,244)"><text x="0" y="0" text-anchor="middle" dominant-baseline="text-before-edge" transform="translate(0,0)"><tspan x="0" y="0" dy="0"/></text></g><g transform="translate(166,235)"><text x="0" y="0" text-anchor="middle" dominant-baseline="text-before-edge" transform="translate(0,0)"><tspan x="0" y="0" dy="0"/></text></g><g transform="translate(172,226)"><text x="0" y="0" text-anchor="middle" dominant-baseline="text-before-edge" transform="translate(0,0)"><tspan x="0" y="0" dy="0"/></text></g><g transform="translate(172,223)"><text x="0" y="0" text-anchor="middle" dominant-baseline="text-before-edge" transform="translate(0,0)"><tspan x="0" y="0" dy="0"/></text></g><g transform="translate(189,217)"><text x="0" y="0" text-anchor="middle" dominant-baseline="text-before-edge" transform="translate(0,0)"><tspan x="0" y="0" dy="0"/></text></g><g transform="translate(198,191)"><text x="0" y="0" text-anchor="middle" dominant-baseline="text-before-edge" transform="translate(0,0)"><tspan x="0" y="0" dy="0"/></text></g><g transform="translate(205,188)"><text x="0" y="0" text-anchor="middle" dominant-baseline="text-before-edge" transform="translate(0,0)"><tspan x="0" y="0" dy="0"/></text></g><g transform="translate(184,185)"><text x="0" y="0" text-anchor="middle" dominant-baseline="text-before-edge" transform="translate(0,0)"><tspan x="0" y="0" dy="0"/></text></g><g transform="translate(209,179)"><text x="0" y="0" text-anchor="middle" dominant-baseline="text-before-edge" transform="translate(0,0)"><tspan x="0" y="0" dy="0"/></text></g><g transform="translate(204,176)"><text x="0" y="0" text-anchor="middle" dominant-baseline="text-before-edge" transform="translate(0,0)"><tspan x="0" y="0" dy="0"/></text></g><g transform="translate(219,170)"><text x="0" y="0" text-anchor="middle" dominant-baseline="text-before-edge" transform="translate(0,0)"><tspan x="0" y="0" dy="0"/></text></g><g transform="translate(210,167)"><text x="0" y="0" text-anchor="middle" dominant-baseline="text-before-edge" transform="translate(0,0)"><tspan x="0" y="0" dy="0"/></text></g><g transform="translate(215,158)"><text x="0" y="0" text-anchor="middle" dominant-baseline="text-before-edge" transform="translate(0,0)"><tspan x="0" y="0" dy="0"/></text></g><g transform="translate(222,144)"><text x="0" y="0" text-anchor="middle" dominant-baseline="text-before-edge" transform="translate(0,0)"><tspan x="0" y="0" dy="0"/></text></g><g transform="translate(241,141)"><text x="0" y="0" text-anchor="middle" dominant-baseline="text-before-edge" transform="translate(0,0)"><tspan x="0" y="0" dy="0"/></text></g><g transform="translate(242,138)"><text x="0" y="0" text-anchor="middle" dominant-baseline="text-before-edge" transform="translate(0,0)"><tspan x="0" y="0" dy="0"/></text></g><g transform="translate(236,132)"><text x="0" y="0" text-anchor="middle" dominant-baseline="text-before-edge" transform="translate(0,0)"><tspan x="0" y="0" dy="0"/></text></g><g transform="translate(232,126)"><text x="0" y="0" text-anchor="middle" dominant-baseline="text-before-edge" transform="translate(0,0)"><tspan x="0" y="0" dy="0"/></text></g><g transform="translate(240,114)"><text x="0" y="0" text-anchor="middle" dominant-baseline="text-before-edge" transform="translate(0,0)"><tspan x="0" y="0" dy="0"/></text></g><g transform="translate(238,111)"><text x="0" y="0" text-anchor="middle" dominant-baseline="text-before-edge" transform="translate(0,0)"><tspan x="0" y="0" dy="0"/></text></g><g transform="translate(262,102)"><text x="0" y="0" text-anchor="middle" dominant-baseline="text-before-edge" transform="translate(0,0)"><tspan x="0" y="0" dy="0"/></text></g><g transform="translate(256,90)"><text x="0" y="0" text-anchor="middle" dominant-baseline="text-before-edge" transform="translate(0,0)"><tspan x="0" y="0" dy="0"/></text></g><g transform="translate(262,85)"><text x="0" y="0" text-anchor="middle" dominant-baseline="text-before-edge" transform="translate(0,0)"><tspan x="0" y="0" dy="0"/></text></g><g transform="translate(258,73)"><text x="0" y="0" text-anchor="middle" dominant-baseline="text-before-edge" transform="translate(0,0)"><tspan x="0" y="0" dy="0"/></text></g><g transform="translate(254,70)"><text x="0" y="0" text-anchor="middle" dominant-baseline="text-before-edge" transform="translate(0,0)"><tspan x="0" y="0" dy="0"/></text></g><g transform="translate(295,64)"><text x="0" y="0" text-anchor="middle" dominant-baseline="text-before-edge" transform="translate(0,0)"><tspan x="0" y="0" dy="0"/></text></g><g transform="translate(280,58)"><text x="0" y="0" text-anchor="middle" dominant-baseline="text-before-edge" transform="translate(0,0)"><tspan x="0" y="0" dy="0"/></text></g><g transform="translate(283,55)"><text x="0" y="0" text-anchor="middle" dominant-baseline="text-before-edge" transform="translate(0,0)"><tspan x="0" y="0" dy="0"/></text></g><g transform="translate(270,52)"><text x="0" y="0" text-anchor="middle" dominant-baseline="text-before-edge" transform="translate(0,0)"><tspan x="0" y="0" dy="0"/></text></g><g transform="translate(271,49)"><text x="0" y="0" text-anchor="middle" dominant-baseline="text-before-edge" transform="translate(0,0)"><tspan x="0" y="0" dy="0"/></text></g><g transform="translate(285,46)"><text x="0" y="0" text-anchor="middle" dominant-baseline="text-before-edge" transform="translate(0,0)"><tspan x="0" y="0" dy="0"/></text></g><g transform="translate(288,35)"><text x="0" y="0" text-anchor="middle" dominant-baseline="text-before-edge" transform="translate(0,0)"><tspan x="0" y="0" dy="0"/></text></g><g transform="translate(279,29)"><text x="0" y="0" text-anchor="middle" dominant-baseline="text-before-edge" transform="translate(0,0)"><tspan x="0" y="0" dy="0"/></text></g><g transform="translate(20,473)"><text x="0" y="0" text-anchor="middle" dominant-baseline="text-before-edge" transform="translate(0,0)"><tspan x="0" y="0" dy="0"/></text></g><g transform="translate(33,471)"><text x="0" y="0" text-anchor="middle" dominant-baseline="text-before-edge" transform="translate(0,0)"><tspan x="0" y="0" dy="0"/></text></g><g transform="translate(51,465)"><text x="0" y="0" text-anchor="middle" dominant-baseline="text-before-edge" transform="translate(0,0)"><tspan x="0" y="0" dy="0"/></text></g><g transform="translate(55,459)"><text x="0" y="0" text-anchor="middle" dominant-baseline="text-before-edge" transform="translate(0,0)"><tspan x="0" y="0" dy="0"/></text></g><g transform="translate(41,450)"><text x="0" y="0" text-anchor="middle" dominant-baseline="text-before-edge" transform="translate(0,0)"><tspan x="0" y="0" dy="0"/></text></g><g transform="translate(62,447)"><text x="0" y="0" text-anchor="middle" dominant-baseline="text-before-edge" transform="translate(0,0)"><tspan x="0" y="0" dy="0"/></text></g><g transform="translate(72,429)"><text x="0" y="0" text-anchor="middle" dominant-baseline="text-before-edge" transform="translate(0,0)"><tspan x="0" y="0" dy="0"/></text></g><g transform="translate(67,426)"><text x="0" y="0" text-anchor="middle" dominant-baseline="text-before-edge" transform="translate(0,0)"><tspan x="0" y="0" dy="0"/></text></g><g transform="translate(70,415)"><text x="0" y="0" text-anchor="middle" dominant-baseline="text-before-edge" transform="translate(0,0)"><tspan x="0" y="0" dy="0"/></text></g><g transform="translate(77,391)"><text x="0" y="0" text-anchor="middle" dominant-baseline="text-before-edge" transform="translate(0,0)"><tspan x="0" y="0" dy="0"/></text></g><g transform="translate(76,388)"><text x="0" y="0" text-anchor="middle" dominant-baseline="text-before-edge" transform="translate(0,0)"><tspan x="0" y="0" dy="0"/></text></g><g transform="translate(102,385)"><text x="0" y="0" text-anchor="middle" dominant-baseline="text-before-edge" transform="translate(0,0)"><tspan x="0" y="0" dy="0"/></text></g><g transform="translate(97,379)"><text x="0" y="0" text-anchor="middle" dominant-baseline="text-before-edge" transform="translate(0,0)"><tspan x="0" y="0" dy="0"/></text></g><g transform="translate(87,376)"><text x="0" y="0" text-anchor="middle" dominant-baseline="text-before-edge" transform="translate(0,0)"><tspan x="0" y="0" dy="0"/></text></g><g transform="translate(78,373)"><text x="0" y="0" text-anchor="middle" dominant-baseline="text-before-edge" transform="translate(0,0)"><tspan x="0" y="0" dy="0"/></text></g><g transform="translate(103,367)"><text x="0" y="0" text-anchor="middle" dominant-baseline="text-before-edge" transform="translate(0,0)"><tspan x="0" y="0" dy="0"/></text></g><g transform="translate(105,356)"><text x="0" y="0" text-anchor="middle" dominant-baseline="text-before-edge" transform="translate(0,0)"><tspan x="0" y="0" dy="0"/></text></g><g transform="translate(97,341)"><text x="0" y="0" text-anchor="middle" dominant-baseline="text-before-edge" transform="translate(0,0)"><tspan x="0" y="0" dy="0"/></text></g><g transform="translate(111,338)"><text x="0" y="0" text-anchor="middle" dominant-baseline="text-before-edge" transform="translate(0,0)"><tspan x="0" y="0" dy="0"/></text></g><g transform="translate(114,323)"><text x="0" y="0" text-anchor="middle" dominant-baseline="text-before-edge" transform="translate(0,0)"><tspan x="0" y="0" dy="0"/></text></g><g transform="translate(130,320)"><text x="0" y="0" text-anchor="middle" dominant-baseline="text-before-edge" transform="translate(0,0)"><tspan x="0" y="0" dy="0"/></text></g><g transform="translate(126,309)"><text x="0" y="0" text-anchor="middle" dominant-baseline="text-before-edge" transform="translate(0,0)"><tspan x="0" y="0" dy="0"/></text></g><g transform="translate(120,300)"><text x="0" y="0" text-anchor="middle" dominant-baseline="text-before-edge" transform="translate(0,0)"><tspan x="0" y="0" dy="0"/></text></g><g transform="translate(130,294)"><text x="0" y="0" text-anchor="middle" dominant-baseline="text-before-edge" transform="translate(0,0)"><tspan x="0" y="0" dy="0"/></text></g><g transform="translate(144,273)"><text x="0" y="0" text-anchor="middle" dominant-baseline="text-before-edge" transform="translate(0,0)"><tspan x="0" y="0" dy="0"/></text></g><g transform="translate(182,229)"><text x="0" y="0" text-anchor="middle" dominant-baseline="text-before-edge" transform="translate(0,0)"><tspan x="0" y="0" dy="0"/></text></g><g transform="translate(178,208)"><text x="0" y="0" text-anchor="middle" dominant-baseline="text-before-edge" transform="translate(0,0)"><tspan x="0" y="0" dy="0"/></text></g><g transform="translate(188,199)"><text x="0" y="0" text-anchor="middle" dominant-baseline="text-before-edge" transform="translate(0,0)"><tspan x="0" y="0" dy="0"/></text></g><g transform="translate(178,197)"><text x="0" y="0" text-anchor="middle" dominant-baseline="text-before-edge" transform="translate(0,0)"><tspan x="0" y="0" dy="0"/></text></g><g transform="translate(27,476)"><text x="0" y="0" text-anchor="middle" dominant-baseline="text-before-edge" transform="translate(0,0)"><tspan x="0" y="0" dy="0"/></text></g><g transform="translate(42,468)"><text x="0" y="0" text-anchor="middle" dominant-baseline="text-before-edge" transform="translate(0,0)"><tspan x="0" y="0" dy="0"/></text></g></g></g></g><text y="4" x="4" style="font-family: Arial, sans-serif; font-size: 12px; fill: black; font-weight: bold; dominant-baseline: hanging;">solo</text></g><g id="acompañado" transform="translate(402.5,0)"><g transform="translate(50,50)" clip-path="url(#serieClipPath)"><g id="axis"><g transform="translate(0,500)" fill="none" font-size="10" font-family="sans-serif" text-anchor="middle"><path class="domain" stroke="currentColor" d="M0.5,6V0.5H303V6"/><g class="tick" opacity="1" transform="translate(0.5,0)"><line stroke="currentColor" y2="6"/><text fill="currentColor" y="9" dy="0.71em">4</text></g><g class="tick" opacity="1" transform="translate(34.5,0)"><line stroke="currentColor" y2="6"/><text fill="currentColor" y="9" dy="0.71em">5</text></g><g class="tick" opacity="1" transform="translate(67.5,0)"><line stroke="currentColor" y2="6"/><text fill="currentColor" y="9" dy="0.71em">6</text></g><g class="tick" opacity="1" transform="translate(101.5,0)"><line stroke="currentColor" y2="6"/><text fill="currentColor" y="9" dy="0.71em">7</text></g><g class="tick" opacity="1" transform="translate(134.5,0)"><line stroke="currentColor" y2="6"/><text fill="currentColor" y="9" dy="0.71em">8</text></g><g class="tick" opacity="1" transform="translate(168.5,0)"><line stroke="currentColor" y2="6"/><text fill="currentColor" y="9" dy="0.71em">9</text></g><g class="tick" opacity="1" transform="translate(202.5,0)"><line stroke="currentColor" y2="6"/><text fill="currentColor" y="9" dy="0.71em">10</text></g><g class="tick" opacity="1" transform="translate(235.5,0)"><line stroke="currentColor" y2="6"/><text fill="currentColor" y="9" dy="0.71em">11</text></g><g class="tick" opacity="1" transform="translate(269.5,0)"><line stroke="currentColor" y2="6"/><text fill="currentColor" y="9" dy="0.71em">12</text></g><g class="tick" opacity="1" transform="translate(303.5,0)"><line stroke="currentColor" y2="6"/><text fill="currentColor" y="9" dy="0.71em">13</text></g><text x="302.5" dy="-5" text-anchor="end" style="font-family: Arial, sans-serif; font-size: 12px; fill: rgb(123, 123, 123); font-weight: bold;">km</text></g><g fill="none" font-size="10" font-family="sans-serif" text-anchor="end"><path class="domain" stroke="currentColor" d="M-6,500.5H0.5V0.5H-6"/><g class="tick" opacity="1" transform="translate(0,500.5)"><line stroke="currentColor" x2="-6"/><text fill="currentColor" x="-9" dy="0.32em">October</text></g><g class="tick" opacity="1" transform="translate(0,461.5)"><line stroke="currentColor" x2="-6"/><text fill="currentColor" x="-9" dy="0.32em">2023</text></g><g class="tick" opacity="1" transform="translate(0,423.5)"><line stroke="currentColor" x2="-6"/><text fill="currentColor" x="-9" dy="0.32em">April</text></g><g class="tick" opacity="1" transform="translate(0,385.5)"><line stroke="currentColor" x2="-6"/><text fill="currentColor" x="-9" dy="0.32em">July</text></g><g class="tick" opacity="1" transform="translate(0,346.5)"><line stroke="currentColor" x2="-6"/><text fill="currentColor" x="-9" dy="0.32em">October</text></g><g class="tick" opacity="1" transform="translate(0,308.5)"><line stroke="currentColor" x2="-6"/><text fill="currentColor" x="-9" dy="0.32em">2024</text></g><g class="tick" opacity="1" transform="translate(0,269.5)"><line stroke="currentColor" x2="-6"/><text fill="currentColor" x="-9" dy="0.32em">April</text></g><g class="tick" opacity="1" transform="translate(0,231.5)"><line stroke="currentColor" x2="-6"/><text fill="currentColor" x="-9" dy="0.32em">July</text></g><g class="tick" opacity="1" transform="translate(0,192.5)"><line stroke="currentColor" x2="-6"/><text fill="currentColor" x="-9" dy="0.32em">October</text></g><g class="tick" opacity="1" transform="translate(0,154.5)"><line stroke="currentColor" x2="-6"/><text fill="currentColor" x="-9" dy="0.32em">2025</text></g><g class="tick" opacity="1" transform="translate(0,116.5)"><line stroke="currentColor" x2="-6"/><text fill="currentColor" x="-9" dy="0.32em">April</text></g><g class="tick" opacity="1" transform="translate(0,77.5)"><line stroke="currentColor" x2="-6"/><text fill="currentColor" x="-9" dy="0.32em">July</text></g><g class="tick" opacity="1" transform="translate(0,39.5)"><line stroke="currentColor" x2="-6"/><text fill="currentColor" x="-9" dy="0.32em">October</text></g><g class="tick" opacity="1" transform="translate(0,0.5)"><line stroke="currentColor" x2="-6"/><text fill="currentColor" x="-9" dy="0.32em">2026</text></g><text x="4" text-anchor="start" dominant-baseline="hanging" style="font-family: Arial, sans-serif; font-size: 12px; fill: rgb(123, 123, 123); font-weight: bold;">fecha</text></g></g><g id="viz"><g><circle cx="99" cy="353" fill="#45ac2a" r="7" stroke="none"/></g><g><circle cx="122" cy="350" fill="#45ac2a" r="7" stroke="none"/></g><g><circle cx="112" cy="329" fill="#45ac2a" r="7" stroke="none"/></g><g><circle cx="142" cy="306" fill="#45ac2a" r="7" stroke="none"/></g><g><circle cx="131" cy="297" fill="#45ac2a" r="7" stroke="none"/></g><g><circle cx="139" cy="270" fill="#45ac2a" r="7" stroke="none"/></g><g><circle cx="151" cy="264" fill="#45ac2a" r="7" stroke="none"/></g><g><circle cx="163" cy="253" fill="#45ac2a" r="7" stroke="none"/></g><g><circle cx="155" cy="250" fill="#45ac2a" r="7" stroke="none"/></g><g><circle cx="185" cy="220" fill="#45ac2a" r="7" stroke="none"/></g><g><circle cx="182" cy="214" fill="#45ac2a" r="7" stroke="none"/></g><g><circle cx="186" cy="211" fill="#45ac2a" r="7" stroke="none"/></g><g><circle cx="175" cy="205" fill="#45ac2a" r="7" stroke="none"/></g><g><circle cx="193" cy="202" fill="#45ac2a" r="7" stroke="none"/></g><g><circle cx="196" cy="182" fill="#45ac2a" r="7" stroke="none"/></g><g><circle cx="234" cy="164" fill="#45ac2a" r="7" stroke="none"/></g><g><circle cx="216" cy="161" fill="#45ac2a" r="7" stroke="none"/></g><g><circle cx="231" cy="155" fill="#45ac2a" r="7" stroke="none"/></g><g><circle cx="226" cy="152" fill="#45ac2a" r="7" stroke="none"/></g><g><circle cx="204" cy="149" fill="#45ac2a" r="7" stroke="none"/></g><g><circle cx="219" cy="146" fill="#45ac2a" r="7" stroke="none"/></g><g><circle cx="244" cy="117" fill="#45ac2a" r="7" stroke="none"/></g><g><circle cx="243" cy="108" fill="#45ac2a" r="7" stroke="none"/></g><g><circle cx="254" cy="105" fill="#45ac2a" r="7" stroke="none"/></g><g><circle cx="251" cy="99" fill="#45ac2a" r="7" stroke="none"/></g><g><circle cx="244" cy="96" fill="#45ac2a" r="7" stroke="none"/></g><g><circle cx="247" cy="93" fill="#45ac2a" r="7" stroke="none"/></g><g><circle cx="258" cy="79" fill="#45ac2a" r="7" stroke="none"/></g><g><circle cx="260" cy="76" fill="#45ac2a" r="7" stroke="none"/></g><g><circle cx="248" cy="67" fill="#45ac2a" r="7" stroke="none"/></g><g><circle cx="273" cy="61" fill="#45ac2a" r="7" stroke="none"/></g><g><circle cx="276" cy="40" fill="#45ac2a" r="7" stroke="none"/></g><g><circle cx="280" cy="37" fill="#45ac2a" r="7" stroke="none"/></g><g><circle cx="297" cy="32" fill="#45ac2a" r="7" stroke="none"/></g><g><circle cx="278" cy="23" fill="#45ac2a" r="7" stroke="none"/></g><g><circle cx="284" cy="20" fill="#45ac2a" r="7" stroke="none"/></g><g><circle cx="31" cy="456" fill="#45ac2a" r="6" stroke="none"/></g><g><circle cx="55" cy="453" fill="#45ac2a" r="6" stroke="none"/></g><g><circle cx="37" cy="444" fill="#45ac2a" r="6" stroke="none"/></g><g><circle cx="40" cy="438" fill="#45ac2a" r="6" stroke="none"/></g><g><circle cx="38" cy="435" fill="#45ac2a" r="6" stroke="none"/></g><g><circle cx="43" cy="432" fill="#45ac2a" r="6" stroke="none"/></g><g><circle cx="63" cy="423" fill="#45ac2a" r="6" stroke="none"/></g><g><circle cx="64" cy="418" fill="#45ac2a" r="6" stroke="none"/></g><g><circle cx="68" cy="409" fill="#b63320" r="6" stroke="none"/></g><g><circle cx="79" cy="403" fill="#b63320" r="6" stroke="none"/></g><g><circle cx="68" cy="400" fill="#b63320" r="6" stroke="none"/></g><g><circle cx="95" cy="397" fill="#45ac2a" r="6" stroke="none"/></g><g><circle cx="91" cy="394" fill="#45ac2a" r="6" stroke="none"/></g><g><circle cx="83" cy="382" fill="#45ac2a" r="6" stroke="none"/></g><g><circle cx="91" cy="370" fill="#45ac2a" r="6" stroke="none"/></g><g><circle cx="82" cy="364" fill="#45ac2a" r="6" stroke="none"/></g><g><circle cx="86" cy="362" fill="#45ac2a" r="6" stroke="none"/></g><g><circle cx="98" cy="359" fill="#45ac2a" r="6" stroke="none"/></g><g><circle cx="114" cy="347" fill="#45ac2a" r="6" stroke="none"/></g><g><circle cx="110" cy="332" fill="#45ac2a" r="6" stroke="none"/></g><g><circle cx="121" cy="326" fill="#45ac2a" r="6" stroke="none"/></g><g><circle cx="150" cy="317" fill="#45ac2a" r="6" stroke="none"/></g><g><circle cx="146" cy="314" fill="#45ac2a" r="6" stroke="none"/></g><g><circle cx="134" cy="311" fill="#45ac2a" r="6" stroke="none"/></g><g><circle cx="147" cy="285" fill="#45ac2a" r="6" stroke="none"/></g><g><circle cx="145" cy="279" fill="#45ac2a" r="6" stroke="none"/></g><g><circle cx="157" cy="258" fill="#45ac2a" r="6" stroke="none"/></g><g><circle cx="161" cy="247" fill="#45ac2a" r="6" stroke="none"/></g><g id="labels"><g transform="translate(99,353)"><text x="0" y="0" text-anchor="middle" dominant-baseline="text-before-edge" transform="translate(0,0)"><tspan x="0" y="0" dy="0"/></text></g><g transform="translate(122,350)"><text x="0" y="0" text-anchor="middle" dominant-baseline="text-before-edge" transform="translate(0,0)"><tspan x="0" y="0" dy="0"/></text></g><g transform="translate(112,329)"><text x="0" y="0" text-anchor="middle" dominant-baseline="text-before-edge" transform="translate(0,0)"><tspan x="0" y="0" dy="0"/></text></g><g transform="translate(142,306)"><text x="0" y="0" text-anchor="middle" dominant-baseline="text-before-edge" transform="translate(0,0)"><tspan x="0" y="0" dy="0"/></text></g><g transform="translate(131,297)"><text x="0" y="0" text-anchor="middle" dominant-baseline="text-before-edge" transform="translate(0,0)"><tspan x="0" y="0" dy="0"/></text></g><g transform="translate(139,270)"><text x="0" y="0" text-anchor="middle" dominant-baseline="text-before-edge" transform="translate(0,0)"><tspan x="0" y="0" dy="0"/></text></g><g transform="translate(151,264)"><text x="0" y="0" text-anchor="middle" dominant-baseline="text-before-edge" transform="translate(0,0)"><tspan x="0" y="0" dy="0"/></text></g><g transform="translate(163,253)"><text x="0" y="0" text-anchor="middle" dominant-baseline="text-before-edge" transform="translate(0,0)"><tspan x="0" y="0" dy="0"/></text></g><g transform="translate(155,250)"><text x="0" y="0" text-anchor="middle" dominant-baseline="text-before-edge" transform="translate(0,0)"><tspan x="0" y="0" dy="0"/></text></g><g transform="translate(185,220)"><text x="0" y="0" text-anchor="middle" dominant-baseline="text-before-edge" transform="translate(0,0)"><tspan x="0" y="0" dy="0"/></text></g><g transform="translate(182,214)"><text x="0" y="0" text-anchor="middle" dominant-baseline="text-before-edge" transform="translate(0,0)"><tspan x="0" y="0" dy="0"/></text></g><g transform="translate(186,211)"><text x="0" y="0" text-anchor="middle" dominant-baseline="text-before-edge" transform="translate(0,0)"><tspan x="0" y="0" dy="0"/></text></g><g transform="translate(175,205)"><text x="0" y="0" text-anchor="middle" dominant-baseline="text-before-edge" transform="translate(0,0)"><tspan x="0" y="0" dy="0"/></text></g><g transform="translate(193,202)"><text x="0" y="0" text-anchor="middle" dominant-baseline="text-before-edge" transform="translate(0,0)"><tspan x="0" y="0" dy="0"/></text></g><g transform="translate(196,182)"><text x="0" y="0" text-anchor="middle" dominant-baseline="text-before-edge" transform="translate(0,0)"><tspan x="0" y="0" dy="0"/></text></g><g transform="translate(234,164)"><text x="0" y="0" text-anchor="middle" dominant-baseline="text-before-edge" transform="translate(0,0)"><tspan x="0" y="0" dy="0"/></text></g><g transform="translate(216,161)"><text x="0" y="0" text-anchor="middle" dominant-baseline="text-before-edge" transform="translate(0,0)"><tspan x="0" y="0" dy="0"/></text></g><g transform="translate(231,155)"><text x="0" y="0" text-anchor="middle" dominant-baseline="text-before-edge" transform="translate(0,0)"><tspan x="0" y="0" dy="0"/></text></g><g transform="translate(226,152)"><text x="0" y="0" text-anchor="middle" dominant-baseline="text-before-edge" transform="translate(0,0)"><tspan x="0" y="0" dy="0"/></text></g><g transform="translate(204,149)"><text x="0" y="0" text-anchor="middle" dominant-baseline="text-before-edge" transform="translate(0,0)"><tspan x="0" y="0" dy="0"/></text></g><g transform="translate(219,146)"><text x="0" y="0" text-anchor="middle" dominant-baseline="text-before-edge" transform="translate(0,0)"><tspan x="0" y="0" dy="0"/></text></g><g transform="translate(244,117)"><text x="0" y="0" text-anchor="middle" dominant-baseline="text-before-edge" transform="translate(0,0)"><tspan x="0" y="0" dy="0"/></text></g><g transform="translate(243,108)"><text x="0" y="0" text-anchor="middle" dominant-baseline="text-before-edge" transform="translate(0,0)"><tspan x="0" y="0" dy="0"/></text></g><g transform="translate(254,105)"><text x="0" y="0" text-anchor="middle" dominant-baseline="text-before-edge" transform="translate(0,0)"><tspan x="0" y="0" dy="0"/></text></g><g transform="translate(251,99)"><text x="0" y="0" text-anchor="middle" dominant-baseline="text-before-edge" transform="translate(0,0)"><tspan x="0" y="0" dy="0"/></text></g><g transform="translate(244,96)"><text x="0" y="0" text-anchor="middle" dominant-baseline="text-before-edge" transform="translate(0,0)"><tspan x="0" y="0" dy="0"/></text></g><g transform="translate(247,93)"><text x="0" y="0" text-anchor="middle" dominant-baseline="text-before-edge" transform="translate(0,0)"><tspan x="0" y="0" dy="0"/></text></g><g transform="translate(258,79)"><text x="0" y="0" text-anchor="middle" dominant-baseline="text-before-edge" transform="translate(0,0)"><tspan x="0" y="0" dy="0"/></text></g><g transform="translate(260,76)"><text x="0" y="0" text-anchor="middle" dominant-baseline="text-before-edge" transform="translate(0,0)"><tspan x="0" y="0" dy="0"/></text></g><g transform="translate(248,67)"><text x="0" y="0" text-anchor="middle" dominant-baseline="text-before-edge" transform="translate(0,0)"><tspan x="0" y="0" dy="0"/></text></g><g transform="translate(273,61)"><text x="0" y="0" text-anchor="middle" dominant-baseline="text-before-edge" transform="translate(0,0)"><tspan x="0" y="0" dy="0"/></text></g><g transform="translate(276,40)"><text x="0" y="0" text-anchor="middle" dominant-baseline="text-before-edge" transform="translate(0,0)"><tspan x="0" y="0" dy="0"/></text></g><g transform="translate(280,37)"><text x="0" y="0" text-anchor="middle" dominant-baseline="text-before-edge" transform="translate(0,0)"><tspan x="0" y="0" dy="0"/></text></g><g transform="translate(297,32)"><text x="0" y="0" text-anchor="middle" dominant-baseline="text-before-edge" transform="translate(0,0)"><tspan x="0" y="0" dy="0"/></text></g><g transform="translate(278,23)"><text x="0" y="0" text-anchor="middle" dominant-baseline="text-before-edge" transform="translate(0,0)"><tspan x="0" y="0" dy="0"/></text></g><g transform="translate(284,20)"><text x="0" y="0" text-anchor="middle" dominant-baseline="text-before-edge" transform="translate(0,0)"><tspan x="0" y="0" dy="0"/></text></g><g transform="translate(31,456)"><text x="0" y="0" text-anchor="middle" dominant-baseline="text-before-edge" transform="translate(0,0)"><tspan x="0" y="0" dy="0"/></text></g><g transform="translate(55,453)"><text x="0" y="0" text-anchor="middle" dominant-baseline="text-before-edge" transform="translate(0,0)"><tspan x="0" y="0" dy="0"/></text></g><g transform="translate(37,444)"><text x="0" y="0" text-anchor="middle" dominant-baseline="text-before-edge" transform="translate(0,0)"><tspan x="0" y="0" dy="0"/></text></g><g transform="translate(40,438)"><text x="0" y="0" text-anchor="middle" dominant-baseline="text-before-edge" transform="translate(0,0)"><tspan x="0" y="0" dy="0"/></text></g><g transform="translate(38,435)"><text x="0" y="0" text-anchor="middle" dominant-baseline="text-before-edge" transform="translate(0,0)"><tspan x="0" y="0" dy="0"/></text></g><g transform="translate(43,432)"><text x="0" y="0" text-anchor="middle" dominant-baseline="text-before-edge" transform="translate(0,0)"><tspan x="0" y="0" dy="0"/></text></g><g transform="translate(63,423)"><text x="0" y="0" text-anchor="middle" dominant-baseline="text-before-edge" transform="translate(0,0)"><tspan x="0" y="0" dy="0"/></text></g><g transform="translate(64,418)"><text x="0" y="0" text-anchor="middle" dominant-baseline="text-before-edge" transform="translate(0,0)"><tspan x="0" y="0" dy="0"/></text></g><g transform="translate(68,409)"><text x="0" y="0" text-anchor="middle" dominant-baseline="text-before-edge" transform="translate(0,0)"><tspan x="0" y="0" dy="0"/></text></g><g transform="translate(79,403)"><text x="0" y="0" text-anchor="middle" dominant-baseline="text-before-edge" transform="translate(0,0)"><tspan x="0" y="0" dy="0"/></text></g><g transform="translate(68,400)"><text x="0" y="0" text-anchor="middle" dominant-baseline="text-before-edge" transform="translate(0,0)"><tspan x="0" y="0" dy="0"/></text></g><g transform="translate(95,397)"><text x="0" y="0" text-anchor="middle" dominant-baseline="text-before-edge" transform="translate(0,0)"><tspan x="0" y="0" dy="0"/></text></g><g transform="translate(91,394)"><text x="0" y="0" text-anchor="middle" dominant-baseline="text-before-edge" transform="translate(0,0)"><tspan x="0" y="0" dy="0"/></text></g><g transform="translate(83,382)"><text x="0" y="0" text-anchor="middle" dominant-baseline="text-before-edge" transform="translate(0,0)"><tspan x="0" y="0" dy="0"/></text></g><g transform="translate(91,370)"><text x="0" y="0" text-anchor="middle" dominant-baseline="text-before-edge" transform="translate(0,0)"><tspan x="0" y="0" dy="0"/></text></g><g transform="translate(82,364)"><text x="0" y="0" text-anchor="middle" dominant-baseline="text-before-edge" transform="translate(0,0)"><tspan x="0" y="0" dy="0"/></text></g><g transform="translate(86,362)"><text x="0" y="0" text-anchor="middle" dominant-baseline="text-before-edge" transform="translate(0,0)"><tspan x="0" y="0" dy="0"/></text></g><g transform="translate(98,359)"><text x="0" y="0" text-anchor="middle" dominant-baseline="text-before-edge" transform="translate(0,0)"><tspan x="0" y="0" dy="0"/></text></g><g transform="translate(114,347)"><text x="0" y="0" text-anchor="middle" dominant-baseline="text-before-edge" transform="translate(0,0)"><tspan x="0" y="0" dy="0"/></text></g><g transform="translate(110,332)"><text x="0" y="0" text-anchor="middle" dominant-baseline="text-before-edge" transform="translate(0,0)"><tspan x="0" y="0" dy="0"/></text></g><g transform="translate(121,326)"><text x="0" y="0" text-anchor="middle" dominant-baseline="text-before-edge" transform="translate(0,0)"><tspan x="0" y="0" dy="0"/></text></g><g transform="translate(150,317)"><text x="0" y="0" text-anchor="middle" dominant-baseline="text-before-edge" transform="translate(0,0)"><tspan x="0" y="0" dy="0"/></text></g><g transform="translate(146,314)"><text x="0" y="0" text-anchor="middle" dominant-baseline="text-before-edge" transform="translate(0,0)"><tspan x="0" y="0" dy="0"/></text></g><g transform="translate(134,311)"><text x="0" y="0" text-anchor="middle" dominant-baseline="text-before-edge" transform="translate(0,0)"><tspan x="0" y="0" dy="0"/></text></g><g transform="translate(147,285)"><text x="0" y="0" text-anchor="middle" dominant-baseline="text-before-edge" transform="translate(0,0)"><tspan x="0" y="0" dy="0"/></text></g><g transform="translate(145,279)"><text x="0" y="0" text-anchor="middle" dominant-baseline="text-before-edge" transform="translate(0,0)"><tspan x="0" y="0" dy="0"/></text></g><g transform="translate(157,258)"><text x="0" y="0" text-anchor="middle" dominant-baseline="text-before-edge" transform="translate(0,0)"><tspan x="0" y="0" dy="0"/></text></g><g transform="translate(161,247)"><text x="0" y="0" text-anchor="middle" dominant-baseline="text-before-edge" transform="translate(0,0)"><tspan x="0" y="0" dy="0"/></text></g></g></g></g><text y="4" x="4" style="font-family: Arial, sans-serif; font-size: 12px; fill: black; font-weight: bold; dominant-baseline: hanging;">acompañado</text></g></g><g id="grid"><rect x="0" y="0" width="402.5" height="600" fill="none" stroke="#ccc"/><rect x="402.5" y="0" width="402.5" height="600" fill="none" stroke="#ccc"/></g><clipPath id="serieClipPath"><rect x="-50" y="-50" width="402.5" height="600"/></clipPath><g id="legend" transform="translate(805,50)"><g transform="translate(5,0)"><g class="legendSize" transform="translate(0,0)"><g class="legendCells" transform="translate(8,16)"><g class="cell" transform="translate(0, 5)"><circle class="swatch" r="5" fill="none" stroke="#ccc"/><text class="label" transform="translate( 13,&#10;          5)" font-family="&quot;Arial&quot;, sans-serif" font-size="10px"><tspan x="0" dy="0em">322.4</tspan></text></g><g class="cell" transform="translate(0, 28.5)"><circle class="swatch" r="8" fill="none" stroke="#ccc"/><text class="label" transform="translate( 13,&#10;          5)" font-family="&quot;Arial&quot;, sans-serif" font-size="10px"><tspan x="0" dy="0em">603.8</tspan></text></g></g><text class="legendTitle" font-family="&quot;Arial&quot;, sans-serif" font-size="12px" font-weight="bold"><tspan x="0" dy="0em">cal_totales</tspan></text></g><g class="legendColor" transform="translate(0,85.5)"><g class="legendCells" transform="translate(0,16)"><g class="cell" transform="translate(0, 0)"><rect class="swatch" height="15" width="15" style="fill: rgb(182, 51, 32);"/><text class="label" transform="translate( 20, 12.5)" font-family="&quot;Arial&quot;, sans-serif" font-size="10px"><tspan x="0" dy="0em">facil</tspan></text></g><g class="cell" transform="translate(0, 21)"><rect class="swatch" height="15" width="15" style="fill: rgb(69, 172, 42);"/><text class="label" transform="translate( 20, 12.5)" font-family="&quot;Arial&quot;, sans-serif" font-size="10px"><tspan x="0" dy="0em">muy facil</tspan></text></g></g><text class="legendTitle" font-family="&quot;Arial&quot;, sans-serif" font-size="12px" font-weight="bold"><tspan x="0" dy="0em">esfuerzo</tspan></text></g></g></g></svg>